name D:\Gebruiker\Documents\~school~\WTK\thesis\model\3dpredictsim_Lars\Results\Test_Lars\Test1_bCst_pas.mot
datacolumns 126
datarows 4
range 1.65454102 1.68763184
endheader
time	pelvis_tilt	pelvis_list	pelvis_rotation	pelvis_tx	pelvis_ty	pelvis_tz	hip_flexion_l	hip_adduction_l	hip_rotation_l	hip_flexion_r	hip_adduction_r	hip_rotation_r	knee_angle_l	knee_angle_r	ankle_angle_l	ankle_angle_r	subtalar_angle_l	subtalar_angle_r	mtp_angle_l	mtp_angle_r	lumbar_extension	lumbar_bending	lumbar_rotation	arm_flex_l	arm_add_l	arm_rot_l	arm_flex_r	arm_add_r	arm_rot_r	elbow_flex_l	elbow_flex_r	pro_sup_l	pro_sup_r	glut_med1_l/activation	glut_med2_l/activation	glut_med3_l/activation	glut_min1_l/activation	glut_min2_l/activation	glut_min3_l/activation	semimem_l/activation	semiten_l/activation	bifemlh_l/activation	bifemsh_l/activation	sar_l/activation	add_long_l/activation	add_brev_l/activation	add_mag1_l/activation	add_mag2_l/activation	add_mag3_l/activation	tfl_l/activation	pect_l/activation	grac_l/activation	glut_max1_l/activation	glut_max2_l/activation	glut_max3_l/activation	iliacus_l/activation	psoas_l/activation	quad_fem_l/activation	gem_l/activation	peri_l/activation	rect_fem_l/activation	vas_med_l/activation	vas_int_l/activation	vas_lat_l/activation	med_gas_l/activation	lat_gas_l/activation	soleus_l/activation	tib_post_l/activation	flex_dig_l/activation	flex_hal_l/activation	tib_ant_l/activation	per_brev_l/activation	per_long_l/activation	per_tert_l/activation	ext_dig_l/activation	ext_hal_l/activation	ercspn_l/activation	intobl_l/activation	extobl_l/activation	glut_med1_r/activation	glut_med2_r/activation	glut_med3_r/activation	glut_min1_r/activation	glut_min2_r/activation	glut_min3_r/activation	semimem_r/activation	semiten_r/activation	bifemlh_r/activation	bifemsh_r/activation	sar_r/activation	add_long_r/activation	add_brev_r/activation	add_mag1_r/activation	add_mag2_r/activation	add_mag3_r/activation	tfl_r/activation	pect_r/activation	grac_r/activation	glut_max1_r/activation	glut_max2_r/activation	glut_max3_r/activation	iliacus_r/activation	psoas_r/activation	quad_fem_r/activation	gem_r/activation	peri_r/activation	rect_fem_r/activation	vas_med_r/activation	vas_int_r/activation	vas_lat_r/activation	med_gas_r/activation	lat_gas_r/activation	soleus_r/activation	tib_post_r/activation	flex_dig_r/activation	flex_hal_r/activation	tib_ant_r/activation	per_brev_r/activation	per_long_r/activation	per_tert_r/activation	ext_dig_r/activation	ext_hal_r/activation	ercspn_r/activation	intobl_r/activation	extobl_r/activation	
          1.65454102	         -2.92447525	          2.55163641	         -5.99071863	          2.06817627	          0.85527560	          0.00283408	         31.58013061	          3.45521829	         -2.64882943	        -18.80424156	         -2.32812083	          7.04981194	        -14.22129579	         -7.10567408	          6.93314101	          0.76732924	         -4.24472176	         10.61712648	         -0.12122243	         23.06025473	         -2.14265159	         -0.94983128	          2.07760559	        -10.28372161	        -13.54628481	          7.15929577	          9.05273289	        -13.46231600	         18.24052266	         13.13267925	         38.54681134	         86.51662706	         86.51662706	          0.05000009	          0.05000008	          0.05000001	          0.05919188	          0.05919186	          0.05000013	          0.05919189	          0.05000007	          0.31926564	          0.05000001	          0.05000011	          0.11626020	          0.26686691	          0.14248800	          0.12791052	          0.13314201	          0.05000001	          0.06112522	          0.07083287	          0.05000003	          0.15560974	          0.17284000	          0.05919188	          0.05056781	          0.13660002	          0.20828386	          0.13439744	          0.05860651	          0.16907280	          0.16201460	          0.14685894	          0.05000000	          0.05000000	          0.05000000	          0.05000000	          0.05000002	          0.05000001	          0.62706744	          0.38098199	          0.21624168	          0.40426870	          0.59789115	          0.35254836	          0.06803238	          0.09005101	          0.09820625	          0.23638718	          0.08904848	          0.06675168	          0.28872477	          0.18668099	          0.09820608	          0.05000010	          0.05000001	          0.05000001	          0.07255901	          0.09869680	          0.12134992	          0.07742546	          0.05000027	          0.05000023	          0.05000006	          0.31274835	          0.11677688	          0.05000031	          0.05000019	          0.05000012	          0.05000008	          0.40666408	          0.66336174	          0.05000002	          0.05000006	          0.05000001	          0.24934186	          0.10930538	          0.07659349	          0.06266515	          0.30571507	          0.41557094	          0.27656267	          0.27701610	          0.28514816	          0.37210031	          0.05000000	          0.05919201	          0.17205275	          0.05000001	          0.05000000	          0.05000001	          0.05000000	          0.05000000	          0.05000000	
          1.66557129	         -2.91436479	          2.63913690	         -6.26644824	          2.08503933	          0.85415900	          0.00262042	         30.96257700	          3.80013669	         -2.40746569	        -18.59499445	         -2.63383673	          6.85776885	        -14.52036201	         -9.23206406	          6.29825861	         -0.16800867	         -4.71449901	         11.59330620	         -0.08702745	         24.00284106	         -1.92410051	         -1.17544016	          2.15908541	        -11.45142995	        -13.53574553	          7.05322284	          8.83785765	        -13.47562097	         18.39674772	         13.09399692	         39.75679667	         86.51662706	         86.51662706	          0.05000000	          0.05000001	          0.13810380	          0.05000000	          0.05000000	          0.05000002	          0.05000002	          0.05000004	          0.26968697	          0.05000002	          0.05000028	          0.09820619	          0.22542523	          0.30658117	          0.22155230	          0.15721567	          0.05000011	          0.05163327	          0.08315016	          0.11783360	          0.15186674	          0.14599978	          0.05000001	          0.05000005	          0.35266492	          0.17593952	          0.11352690	          0.05919191	          0.14281791	          0.17577006	          0.14479253	          0.05919196	          0.06633433	          0.05000000	          0.07007357	          0.07939484	          0.07007368	          0.52969030	          0.41085261	          0.25863324	          0.34148992	          0.55017998	          0.29780122	          0.05746765	          0.07606701	          0.08295582	          0.19967869	          0.07522016	          0.05871365	          0.24388879	          0.15769136	          0.08295569	          0.05000051	          0.05000007	          0.05000015	          0.06129135	          0.08337022	          0.20249136	          0.14855688	          0.07007344	          0.05919221	          0.05919197	          0.26418176	          0.09864275	          0.05000059	          0.05000141	          0.05000165	          0.05919169	          0.34351333	          0.61045648	          0.05919188	          0.05919188	          0.05011988	          0.21062163	          0.13719353	          0.16293541	          0.16293542	          0.25824065	          0.35103703	          0.23361533	          0.23399836	          0.24086762	          0.31431698	          0.05000000	          0.05000010	          0.16622220	          0.05000000	          0.05000000	          0.05000001	          0.06186433	          0.05919189	          0.05000005	
          1.67660157	         -2.90056692	          2.72509379	         -6.50979572	          2.10212542	          0.85306921	          0.00241201	         30.20937165	          4.08354495	         -2.14041845	        -18.28702674	         -2.92420648	          6.65458615	        -15.13252028	        -11.51416030	          5.81712556	         -1.28773639	         -5.21296251	         12.50326611	         -0.19068141	         24.75141769	         -1.68921453	         -1.40475585	          2.22914485	        -12.60603701	        -13.52866676	          7.00658093	          8.53521245	        -13.48892659	         18.47439061	         13.08348207	         40.93236099	         86.51662706	         86.51662706	          0.26336362	          0.27494326	          0.34722590	          0.34066074	          0.22791888	          0.19709199	          0.07360837	          0.05221240	          0.22780735	          0.06017286	          0.05000027	          0.08295579	          0.19041902	          0.25897228	          0.18714753	          0.15520869	          0.05000005	          0.05050897	          0.07023840	          0.21465824	          0.19371349	          0.12332880	          0.05000026	          0.05000005	          0.29789969	          0.14861793	          0.23331645	          0.05000002	          0.12063977	          0.14847479	          0.12230774	          0.05000009	          0.05603330	          0.05657388	          0.05919187	          0.06706565	          0.05919197	          0.58650403	          0.44242973	          0.21847043	          0.52746508	          0.63032818	          0.31583088	          0.07465029	          0.09177989	          0.07007364	          0.28421254	          0.06353925	          0.05000000	          0.31784266	          0.13320352	          0.07007353	          0.05000032	          0.05000002	          0.05000001	          0.05177344	          0.07042373	          0.17104655	          0.12548755	          0.05919177	          0.05000032	          0.05000009	          0.27278168	          0.08332468	          0.05000012	          0.05000017	          0.05000010	          0.05000006	          0.29016924	          0.56856981	          0.05000001	          0.05000007	          0.05000001	          0.17791425	          0.11588880	          0.13763322	          0.13763323	          0.21813852	          0.29652458	          0.19733726	          0.19766082	          0.20346336	          0.26550679	          0.05000000	          0.11083298	          0.19287882	          0.05000001	          0.05000000	          0.05000001	          0.06726069	          0.05000000	          0.05000000	
          1.68763184	         -2.88514102	          2.80078754	         -6.71547789	          2.11921447	          0.85204017	          0.00217595	         29.39748300	          4.35464733	         -1.87485359	        -17.86099969	         -3.19175905	          6.44979727	        -15.71293087	        -13.95421082	          5.45721206	         -2.57155923	         -5.72182502	         13.34820327	         -0.20144096	         25.19966218	         -1.45999408	         -1.62839871	          2.28964407	        -13.69319899	        -13.52078224	          7.02615094	          8.18463711	        -13.50800550	         18.49977255	         13.06526938	         42.04310490	         86.51662706	         86.51662706	          0.35744117	          0.39382060	          0.45429470	          0.28775966	          0.19252556	          0.26152471	          0.07089134	          0.11069999	          0.19243121	          0.06980445	          0.05000005	          0.07007361	          0.16084891	          0.21881696	          0.24604817	          0.19074177	          0.05000002	          0.05000054	          0.14178046	          0.28747953	          0.23637793	          0.18903849	          0.05000000	          0.05000000	          0.25163894	          0.12553911	          0.21656709	          0.05000000	          0.14392999	          0.20950381	          0.16489338	          0.05000000	          0.05000000	          0.05000000	          0.05000000	          0.05665105	          0.05000007	          0.66446530	          0.37372497	          0.18789361	          0.69584079	          0.65360307	          0.42040560	          0.09232893	          0.07752742	          0.05919192	          0.24007726	          0.05367226	          0.05000000	          0.26848498	          0.11251838	          0.05919184	          0.05000034	          0.05000001	          0.05000002	          0.05000000	          0.05948766	          0.19025358	          0.15357781	          0.05000006	          0.05000027	          0.06998633	          0.23780152	          0.07038527	          0.05000005	          0.05000024	          0.05000016	          0.05000011	          0.24510894	          0.51149870	          0.05000001	          0.05000006	          0.05000001	          0.15028599	          0.11626020	          0.11626021	          0.11626020	          0.18426385	          0.25047735	          0.16669281	          0.16696612	          0.17186760	          0.22427632	          0.08596424	          0.14714478	          0.16292675	          0.05000013	          0.16544226	          0.05000029	          0.09871777	          0.05000000	          0.05000000	
